# xmcd
#
# Track frame offsets:
#	150
#	16067
#	31130
#	44195
#	55952
#	68182
#	80082
#	93010
#	105725
#	118665
#	130237
#	143957
#	157822
#	170622
#	183327
#	194177
#	206245
#	219887
#	232185
#	244197
#
# Disc length: 3408 seconds
#
# Revision: 4
# Processed by: cddbd v1.5.2PL0 Copyright (c) Steve Scherf et al.
# Submitted via: audiograbber 1.83.01
#
DISCID=260d4e14
DTITLE=Various Artist - The Greatest Country Stars Of The 20th Century (Reader
DTITLE='s Digest) [Disc 1]
DYEAR=2003
DGENRE=Country
TTITLE0=Jimmie Rodgers - Blue Yodel (T For Texas) (1928)
TTITLE1=Gene Autry - The Last Roundup (1933)
TTITLE2=Roy Acuff - Wabash Cannon Ball (1939)
TTITLE3=Bob Wills - New San Antonio Rose (1940)
TTITLE4=Sons Of The Pioneers - Cool Water (1941)
TTITLE5=Ernest Tubb - Walking The Floor Over You (1941)
TTITLE6=Al Dexter - Pistol Packin' Mama (1943)
TTITLE7=Bill Monroe - Kentucky Waltz (1946)
TTITLE8=Roy Rogers - Blue Shadows On The Trail (1948)
TTITLE9=Eddy Arnold - Bouquet Of Roses (1948)
TTITLE10=Tex Ritter - Deck Of Cards (1948)
TTITLE11=Tennessee Ernie Ford - Mule Train (1949)
TTITLE12=Hank Snow - I'm Moving On (1950)
TTITLE13=Smoky Dawson - The Wild Colonial Boy (1951)
TTITLE14=Chad Morgan - The Sheik Of Scrubby Creek (1952)
TTITLE15=Kitty Wells - It Wasn't God Who Made Honky Tonk Angels (1952)
TTITLE16=Pee Wee King - Slow Poke (1952)
TTITLE17=Hank Williams - Your Cheatin' Heart (1953)
TTITLE18=Jim Reeves - Mexican Joe (1953)
TTITLE19=Rusty Draper - Gambler's Guitar (1953)
EXTD=YEAR: 2003
EXTT0=
EXTT1=
EXTT2=
EXTT3=
EXTT4=
EXTT5=
EXTT6=
EXTT7=
EXTT8=
EXTT9=
EXTT10=
EXTT11=
EXTT12=
EXTT13=
EXTT14=
EXTT15=
EXTT16=
EXTT17=
EXTT18=
EXTT19=
PLAYORDER=
